<svg width="113" height="29" viewBox="0 0 113 29" fill="none" xmlns="http://www.w3.org/2000/svg">
<path d="M45.7113 1.46322V22.4321H43.0788V18.8285C41.9605 20.2028 40.705 21.2368 39.3125 21.9307C37.8927 22.6304 36.3305 22.9868 34.75 22.9714C31.8125 22.9714 29.3042 21.8954 27.225 19.7433C25.1459 17.5912 24.1042 14.9734 24.1 11.8897C24.1 8.87076 25.1488 6.2886 27.2463 4.14324C29.3438 1.99788 31.8684 0.92478 34.82 0.92394C36.4279 0.901201 38.0165 1.27859 39.445 2.02266C40.825 2.75514 42.0363 3.85386 43.0788 5.31882V1.46322H45.7113ZM35.0388 3.52584C33.5856 3.51605 32.1569 3.90276 30.9041 4.64498C29.6513 5.38721 28.621 6.45729 27.9225 7.7418C27.1902 9.03148 26.8058 10.492 26.8076 11.978C26.8093 13.464 27.1972 14.9236 27.9325 16.2115C28.6394 17.5165 29.6828 18.6048 30.9525 19.3615C32.1815 20.1028 33.5878 20.4923 35.02 20.488C36.4777 20.489 37.9101 20.1041 39.1738 19.3716C40.4411 18.6679 41.4873 17.6203 42.1938 16.3476C42.898 15.0767 43.25 13.6453 43.25 12.0535C43.25 9.62844 42.4584 7.60068 40.875 5.97024C39.2917 4.3398 37.3463 3.525 35.0388 3.52584Z" fill="#2A3540"/>
<path d="M65.1838 3.75768L62.9475 5.5494C61.0875 4.14912 59.2692 3.44898 57.4925 3.44898C56.3642 3.44898 55.3971 3.73794 54.5913 4.31586C53.7854 4.89378 53.3825 5.5683 53.3825 6.33942C53.3825 7.0215 53.7158 7.6704 54.3825 8.28612C55.0492 8.91612 56.4433 9.6549 58.565 10.5025C61.1542 11.5432 62.9133 12.5453 63.8425 13.5088C64.755 14.4857 65.2113 15.5845 65.2113 16.805C65.2113 18.5261 64.4317 19.9844 62.8725 21.1797C61.3133 22.375 59.3646 22.9723 57.0263 22.9714C55.5027 22.9779 53.9903 22.7104 52.56 22.1814C51.1433 21.6547 49.9696 20.929 49.0388 20.0041L51.225 18.0763C53.0017 19.6312 54.8858 20.4086 56.8775 20.4086C58.2725 20.4086 59.4596 20.0617 60.4388 19.3678C61.4179 18.674 61.9075 17.8579 61.9075 16.9196C61.9075 16.1494 61.5838 15.4622 60.9363 14.8583C60.2896 14.2703 58.8292 13.5248 56.555 12.6218C54.115 11.6465 52.4554 10.6831 51.5763 9.73134C50.6971 8.77962 50.255 7.69392 50.25 6.47424C50.25 4.87824 50.9508 3.55482 52.3525 2.50398C53.7542 1.45314 55.5254 0.926457 57.6663 0.923937C60.1554 0.923937 62.6613 1.86852 65.1838 3.75768Z" fill="#2A3540"/>
<path d="M88.775 5.814L86.6575 7.1496C84.8292 4.69512 82.3334 3.46788 79.17 3.46788C76.6425 3.46788 74.5434 4.2894 72.8725 5.93244C71.2017 7.57548 70.3683 9.5709 70.3725 11.9187C70.3698 13.434 70.7676 14.9227 71.525 16.2317C72.2692 17.554 73.3649 18.6406 74.6888 19.3691C76.0693 20.1233 77.6187 20.5077 79.1888 20.4854C82.238 20.4854 84.7275 19.2586 86.6575 16.805L88.775 18.2111C87.7798 19.7238 86.3978 20.9374 84.775 21.724C83.1025 22.5556 81.1984 22.9714 79.0625 22.9714C75.7817 22.9714 73.06 21.9181 70.8975 19.8113C68.735 17.7046 67.6542 15.1426 67.655 12.1253C67.6443 10.1365 68.1683 8.18193 69.1713 6.4692C70.1614 4.749 71.6041 3.3383 73.34 2.3931C75.1133 1.4145 77.0921 0.924784 79.2763 0.923944C80.6261 0.920552 81.9677 1.13538 83.25 1.56024C84.4169 1.92733 85.5152 2.48725 86.5 3.21714C87.4178 3.92634 88.1904 4.80825 88.775 5.814Z" fill="#2A3540"/>
<path d="M101.83 0.923937C105.027 0.923937 107.677 2.09322 109.78 4.43178C111.691 6.56538 112.646 9.09 112.646 12.0056C112.646 14.9356 111.637 17.4955 109.617 19.6853C107.598 21.8752 105.002 22.9706 101.83 22.9714C98.6458 22.9714 96.0442 21.8761 94.025 19.6853C92.0058 17.4946 90.9975 14.9347 91 12.0056C91 9.1026 91.9554 6.5826 93.8663 4.44564C95.9654 2.09784 98.62 0.923937 101.83 0.923937ZM101.821 3.56994C99.5996 3.56994 97.6917 4.3986 96.0975 6.05592C94.5033 7.71324 93.7058 9.7158 93.705 12.0636C93.6964 13.5486 94.0725 15.0101 94.7963 16.3035C95.4825 17.5719 96.5052 18.6228 97.75 19.3388C98.9963 20.0403 100.4 20.4086 101.827 20.4086C103.255 20.4086 104.659 20.0403 105.905 19.3388C107.147 18.6209 108.167 17.5703 108.852 16.3035C109.576 15.0098 109.952 13.5485 109.944 12.0636C109.944 9.7116 109.143 7.70736 107.541 6.05088C105.94 4.3944 104.033 3.56574 101.821 3.5649V3.56994Z" fill="#2A3540"/>
<path d="M11.4875 0.923937C14.685 0.923937 17.3346 2.09322 19.4363 4.43178C21.3479 6.56538 22.3034 9.09 22.3025 12.0056C22.3025 14.9356 21.2929 17.4955 19.2738 19.6853C17.2546 21.8752 14.6592 22.9706 11.4875 22.9714C8.30253 22.9714 5.70044 21.8761 3.68128 19.6853C1.66211 17.4946 0.652527 14.9347 0.652527 12.0056C0.652527 9.1026 1.60794 6.5826 3.51878 4.44564C5.61961 2.09784 8.27586 0.923937 11.4875 0.923937ZM11.4775 3.56994C9.25753 3.56994 7.34961 4.3986 5.75378 6.05592C4.15794 7.71324 3.36044 9.7158 3.36128 12.0636C3.35328 13.5485 3.7294 15.0098 4.45253 16.3035C5.13743 17.5707 6.15779 18.6215 7.40003 19.3388C8.64636 20.0403 10.0501 20.4086 11.4775 20.4086C12.905 20.4086 14.3087 20.0403 15.555 19.3388C16.7959 18.6205 17.8152 17.5699 18.5 16.3035C19.2232 15.0098 19.5993 13.5485 19.5913 12.0636C19.5913 9.7116 18.7904 7.70736 17.1888 6.05088C15.5871 4.3944 13.6834 3.56574 11.4775 3.5649V3.56994Z" fill="#2A3540"/>
<path d="M22.3088 1.38384H19.6838V28.8367H22.3088V1.38384Z" fill="#FF3338"/>
<path d="M19.6838 1.38384L20.1463 4.68378L15.1101 9.81828L13.2426 7.95978L19.6838 1.38384Z" fill="#FF3338"/>
</svg>
