<svg width="24" height="16" viewBox="0 0 24 16" fill="none" xmlns="http://www.w3.org/2000/svg">
<path d="M21.5001 0H2.49999C1.122 0 0 1.122 0 2.50004V13.5001C0 14.8781 1.122 16.0001 2.49999 16.0001H21.5C22.878 16.0001 24 14.8781 24 13.5001V2.50004C24 1.122 22.878 0 21.5001 0ZM23.0001 13.5C23.0001 14.327 22.3271 15 21.5001 15H2.49999C1.67297 15 0.999986 14.327 0.999986 13.5V2.50004C0.999986 1.67302 1.67297 1.00003 2.49999 1.00003H21.5C22.327 1.00003 23 1.67302 23 2.50004V13.5H23.0001Z" fill="#222222"/>
<path d="M21.9119 2.21802C21.7568 1.99002 21.4459 1.93302 21.2168 2.08803L13.0159 7.69903C12.3979 8.12105 11.5999 8.12105 10.9828 7.69903L2.78181 2.08799C2.55282 1.931 2.24181 1.98997 2.08679 2.21797C1.93178 2.44597 1.98981 2.75699 2.21781 2.91299L10.4188 8.52399C10.8988 8.853 11.4499 9.01697 11.9998 9.01697C12.5498 9.01697 13.1008 8.85295 13.5808 8.52399L21.7819 2.91299C22.0099 2.75699 22.0679 2.44602 21.9119 2.21802Z" fill="#222222"/>
<path d="M8.88496 8.17921C8.70796 7.96822 8.39198 7.93921 8.17996 8.11522L2.17995 13.1152C1.96793 13.2922 1.93897 13.6082 2.11597 13.8203C2.21497 13.9393 2.35695 14.0003 2.50095 14.0003C2.61397 14.0003 2.72797 13.9622 2.82097 13.8842L8.82098 8.88421C9.033 8.70721 9.06196 8.39118 8.88496 8.17921Z" fill="#222222"/>
<path d="M21.821 13.1148L15.821 8.11474C15.608 7.93872 15.293 7.96773 15.116 8.17872C14.939 8.39172 14.968 8.70672 15.1799 8.88372L21.1799 13.8837C21.2739 13.9617 21.3869 13.9998 21.5 13.9998C21.643 13.9998 21.785 13.9388 21.8849 13.8198C22.0619 13.6068 22.0329 13.2918 21.821 13.1148Z" fill="#222222"/>
</svg>
