<svg width="18" height="22" viewBox="0 0 18 22" fill="none" xmlns="http://www.w3.org/2000/svg">
<path d="M8.99906 11.165C10.4255 11.1638 11.5805 10.0063 11.5791 8.58C11.5778 7.15375 10.4203 5.9986 8.99391 6C7.56781 6.00141 6.41266 7.15875 6.41406 8.585C6.4186 10.01 7.57406 11.1631 8.99906 11.165ZM8.99906 7C9.87438 7 10.5841 7.70953 10.5841 8.585C10.5841 9.46031 9.87438 10.17 8.99906 10.17C8.12359 10.17 7.41406 9.46031 7.41406 8.585C7.41422 7.70969 8.12391 7.00016 8.99906 7Z" fill="black"/>
<path d="M5.5293 15.7101H12.4691C12.7452 15.7095 12.9684 15.486 12.9691 15.2101C12.9691 14.0801 12.5593 13.0401 11.8093 12.2751C11.0674 11.5232 10.0554 11.1001 8.9993 11.1001C7.9432 11.1001 6.93117 11.5232 6.1893 12.2751C5.4393 13.0401 5.0293 14.0801 5.0293 15.2101C5.03008 15.486 5.25336 15.7095 5.5293 15.7101ZM6.9043 12.9751C7.45773 12.4153 8.21211 12.1001 8.9993 12.1001C9.78633 12.1001 10.5409 12.4153 11.0941 12.9751C11.553 13.4485 11.8476 14.0567 11.9343 14.7101H6.0643C6.14992 14.0563 6.44461 13.4476 6.9043 12.9751Z" fill="black"/>
<path d="M15.5 1.56485H11V0.460251C10.9992 0.206394 10.7758 0.00071914 10.5 0H7.5C7.22422 0.00071914 7.00078 0.206394 7 0.460251V1.56485H2.5C1.11953 1.56543 0.000625 2.59538 0 3.86611V19.6987C0.000625 20.9695 1.11953 21.9994 2.5 22H15.5C16.8805 21.9994 17.9994 20.9695 18 19.6987V3.86611C17.9994 2.59538 16.8805 1.56543 15.5 1.56485ZM8 0.920502H10V2.76151H8V0.920502ZM17 19.6987C16.9977 20.4603 16.3273 21.0773 15.5 21.0795H2.5C1.67266 21.0773 1.00234 20.4603 1 19.6987V3.86611C1.00234 3.10454 1.67266 2.48751 2.5 2.48536H7V3.22176C7.00078 3.47561 7.22422 3.68129 7.5 3.68201H10.5C10.7758 3.68129 10.9992 3.47561 11 3.22176V2.48536H15.5C16.3273 2.48751 16.9977 3.10454 17 3.86611V19.6987Z" fill="black"/>
</svg>
