<svg width="16" height="17" viewBox="0 0 16 17" fill="none" xmlns="http://www.w3.org/2000/svg">
<path d="M15.5815 1.80484C15.5414 1.76733 15.4577 1.70395 15.4001 1.66159C14.356 0.874216 12.7508 -0.0667566 11.2016 0.00373545C8.60764 0.123378 5.15999 3.62405 4.16502 4.69437C3.17037 5.76501 -0.0693594 9.45905 0.00113266 12.0524C0.0118035 12.4847 0.102667 12.9429 0.27146 13.4137C0.661107 14.5005 1.40224 15.4816 1.94775 16.1047C1.94775 16.1047 2.06189 16.2389 2.11687 16.2906C2.25753 16.421 2.46286 16.5241 2.7445 16.6059C2.8884 16.6476 3.04005 16.6567 3.14159 16.6567C3.25476 16.6567 3.474 16.6454 3.67351 16.571C3.94643 16.4691 4.14173 16.3524 4.27302 16.2127C4.36906 16.1092 6.20088 13.771 6.21123 13.7562L6.22287 13.7384C6.3202 13.6116 6.39619 13.4794 6.4489 13.3449C6.58697 12.9924 6.59247 12.6021 6.46506 12.2454C6.3839 12.0188 6.24971 11.8147 6.07962 11.6572L5.21949 10.8537C5.13865 10.7784 5.0549 10.6383 5.04293 10.5889C5.03323 10.5368 5.03065 10.5006 5.03 10.4773L10.0417 5.08434C10.054 5.07141 10.066 5.06494 10.0744 5.06138C10.0821 5.06397 10.0889 5.0672 10.0941 5.06882C10.1342 5.08854 10.2616 5.18167 10.3877 5.29808L11.2485 6.09322C11.7009 6.51391 12.4045 6.61835 12.9532 6.35061C13.1489 6.25522 13.295 6.12458 13.3639 6.06412L13.4027 6.03275C13.4205 6.01723 15.5809 4.04862 15.662 3.96035C15.8654 3.74143 15.9754 3.39673 15.9986 2.90685C16.0116 2.63458 15.9314 2.29311 15.8082 2.09489C15.7283 1.96749 15.6539 1.8721 15.5815 1.80484ZM14.9597 3.29003C14.8478 3.40029 12.8853 5.19202 12.7825 5.28579L12.7026 5.35176C12.6726 5.3786 12.6018 5.44165 12.5267 5.47851C12.3301 5.57423 12.074 5.53672 11.9069 5.38151L11.0451 4.5854C10.9445 4.49227 10.6872 4.26592 10.4728 4.17603C10.3298 4.11653 10.2053 4.0884 10.0608 4.08807C9.78466 4.09777 9.52727 4.21483 9.33293 4.42113L4.27075 9.86842C4.07836 10.0757 4.01692 10.3771 4.08838 10.7645C4.14368 11.0639 4.37003 11.3882 4.55693 11.5628L5.41868 12.3677C5.47656 12.4213 5.52247 12.4925 5.55158 12.5727C5.59943 12.7065 5.59717 12.8592 5.54543 12.9911C5.51536 13.0681 5.46524 13.1321 5.44875 13.1531C5.43323 13.1731 5.42191 13.1893 5.41286 13.2039C5.23921 13.428 3.65896 15.4386 3.56713 15.5476C3.56648 15.5479 3.51313 15.5954 3.33431 15.6624C3.30909 15.6717 3.23472 15.6866 3.14191 15.6866C3.07498 15.6866 3.03132 15.6792 3.01548 15.6743C2.84216 15.6239 2.78137 15.5822 2.78007 15.5822C2.74871 15.5508 2.69471 15.4855 2.68533 15.4745C2.18768 14.9057 1.52318 14.03 1.18495 13.0862C1.05108 12.713 0.979291 12.3573 0.971207 12.0275C0.923027 10.2558 3.0449 7.32554 4.87608 5.35499C6.70694 3.38412 9.47456 1.05433 11.2462 0.97284C12.5235 0.913342 13.8981 1.74405 14.8054 2.42795L14.8404 2.45414C14.8611 2.46934 14.8999 2.49683 14.9167 2.51106C14.9396 2.53531 14.9619 2.57152 14.9801 2.6003C15.002 2.64331 15.0331 2.77686 15.0289 2.86028C15.015 3.14678 14.9636 3.27935 14.9597 3.29003Z" fill="#010002"/>
</svg>
